<svg width="218" height="11" viewBox="0 0 218 11" fill="none" xmlns="http://www.w3.org/2000/svg">
<path d="M0.804001 9V0.419999H6.624V1.368H1.884V4.044H5.832V4.956H1.884V9H0.804001Z" fill="white"/>
<path d="M7.7655 9V0.419999H8.8455V9H7.7655Z" fill="white"/>
<path d="M10.472 9V0.419999H11.612L15.524 6.384C15.812 6.828 16.148 7.488 16.148 7.488H16.172V0.419999H17.18V9H16.076L12.14 3.024C11.864 2.604 11.504 1.956 11.504 1.956H11.48V9H10.472Z" fill="white"/>
<path d="M18.7923 9V0.419999H21.9123C24.4923 0.419999 25.7163 2.172 25.7163 4.74C25.7163 7.308 24.4083 9 21.8283 9H18.7923ZM19.8723 8.052H21.7923C23.8083 8.052 24.6123 6.756 24.6123 4.74C24.6123 2.724 23.8923 1.356 21.8763 1.356H19.8723V8.052Z" fill="white"/>
<path d="M28.2216 9L31.3776 0.419999H32.5896L35.7576 9H34.5816L33.6696 6.384H30.2496L29.3256 9H28.2216ZM31.5816 2.628L30.5616 5.508H33.3696L32.3856 2.628C32.2176 2.148 32.0016 1.416 32.0016 1.416H31.9776C31.9776 1.416 31.7496 2.136 31.5816 2.628Z" fill="white"/>
<path d="M36.6868 9V0.419999H37.8268L41.7388 6.384C42.0268 6.828 42.3628 7.488 42.3628 7.488H42.3868V0.419999H43.3948V9H42.2908L38.3548 3.024C38.0788 2.604 37.7188 1.956 37.7188 1.956H37.6948V9H36.6868Z" fill="white"/>
<path d="M45.0311 9V0.419999H46.1111V9H45.0311Z" fill="white"/>
<path d="M47.0536 9L50.2096 0.419999H51.4216L54.5896 9H53.4136L52.5016 6.384H49.0816L48.1576 9H47.0536ZM50.4136 2.628L49.3936 5.508H52.2016L51.2176 2.628C51.0496 2.148 50.8336 1.416 50.8336 1.416H50.8096C50.8096 1.416 50.5816 2.136 50.4136 2.628Z" fill="white"/>
<path d="M61.473 8.052C60.201 8.052 59.421 7.116 59.421 5.772C59.421 3.924 60.489 2.748 61.881 2.748C62.613 2.748 63.105 3.12 63.357 3.6H63.381L63.477 2.868H64.413L64.005 6.204C63.921 6.864 64.125 7.2 64.665 7.2C65.301 7.2 65.961 6.504 65.961 4.836C65.961 2.376 64.257 1.2 62.097 1.2C59.853 1.2 57.873 2.832 57.873 5.592C57.873 7.86 59.301 9.528 61.881 9.528C62.709 9.528 63.429 9.372 64.113 9.108L64.389 9.768C63.657 10.092 62.817 10.26 61.941 10.26C59.037 10.26 57.021 8.4 57.021 5.58C57.021 2.292 59.565 0.443999 62.133 0.443999C64.485 0.443999 66.789 1.932 66.789 4.788C66.789 6.624 66.069 7.968 64.605 7.968C63.861 7.968 63.405 7.608 63.225 7.104H63.201C62.829 7.668 62.193 8.052 61.473 8.052ZM61.569 7.308C62.685 7.308 63.201 6.3 63.201 5.016C63.201 4.104 62.793 3.504 61.905 3.504C60.849 3.504 60.393 4.524 60.393 5.76C60.393 6.624 60.741 7.308 61.569 7.308Z" fill="white"/>
<path d="M69.6817 9V0.419999H71.8177L74.3617 4.728C74.4937 4.968 74.9498 5.82 74.9498 5.82H74.9737C74.9737 5.82 74.9498 4.788 74.9498 4.488V0.419999H77.0257V9H74.8897L72.3698 4.752C72.2258 4.524 71.7578 3.6 71.7578 3.6H71.7337C71.7337 3.6 71.7578 4.704 71.7578 5.004V9H69.6817Z" fill="white"/>
<path d="M78.2013 9V0.419999H84.7053V2.172H80.3253V3.708H84.0813V5.364H80.3253V7.2H84.7773V9H78.2013Z" fill="white"/>
<path d="M85.195 9L88.279 0.419999H90.463L93.559 9H91.327L90.823 7.452H87.823L87.331 9H85.195ZM88.315 5.928H90.331L89.683 3.852C89.539 3.408 89.347 2.64 89.347 2.64H89.323C89.323 2.64 89.119 3.408 88.975 3.852L88.315 5.928Z" fill="white"/>
<path d="M95.1961 9V2.22H92.7001V0.419999H99.8401V2.22H97.3201V9H95.1961Z" fill="white"/>
<path d="M102.755 7.212H104.003C105.395 7.212 106.115 6.336 106.115 4.764C106.115 3.204 105.359 2.196 104.027 2.196H102.755V7.212ZM100.631 9V0.419999H104.291C106.667 0.419999 108.263 2.136 108.263 4.764C108.263 6.276 107.735 7.488 106.775 8.22C106.103 8.724 105.239 9 104.159 9H100.631Z" fill="white"/>
<path d="M109.092 9V0.419999H115.596V2.172H111.216V3.708H114.972V5.364H111.216V7.2H115.668V9H109.092Z" fill="white"/>
<path d="M119.988 9.204C117.708 9.204 116.208 8.196 116.16 6.3H118.296C118.392 7.164 118.956 7.524 119.976 7.524C120.672 7.524 121.356 7.272 121.356 6.624C121.356 5.94 120.66 5.796 119.484 5.508C117.996 5.16 116.424 4.704 116.424 2.904C116.424 1.068 117.912 0.263999 119.832 0.263999C121.692 0.263999 123.132 1.104 123.216 2.904H121.14C121.056 2.244 120.552 1.872 119.76 1.872C119.016 1.872 118.524 2.196 118.524 2.676C118.524 3.276 119.184 3.42 120.468 3.708C122.064 4.08 123.504 4.572 123.504 6.408C123.504 8.208 121.968 9.204 119.988 9.204Z" fill="white"/>
<path d="M124.385 9V0.419999H126.509V9H124.385Z" fill="white"/>
<path d="M131.434 9.192C130.21 9.192 129.214 8.76 128.506 7.992C127.762 7.176 127.354 6.048 127.354 4.74C127.354 3.396 127.81 2.208 128.626 1.392C129.334 0.671999 130.33 0.251999 131.566 0.251999C133.774 0.251999 135.094 1.428 135.37 3.228H133.306C133.15 2.532 132.574 2.004 131.638 2.004C130.222 2.004 129.514 3.18 129.514 4.74C129.514 6.312 130.33 7.476 131.674 7.476C132.79 7.476 133.45 6.732 133.534 5.976V5.952H131.926V4.392H135.502V9H134.014L133.894 7.968H133.87C133.306 8.844 132.466 9.192 131.434 9.192Z" fill="white"/>
<path d="M136.537 9V0.419999H138.673L141.217 4.728C141.349 4.968 141.805 5.82 141.805 5.82H141.829C141.829 5.82 141.805 4.788 141.805 4.488V0.419999H143.881V9H141.745L139.225 4.752C139.081 4.524 138.613 3.6 138.613 3.6H138.589C138.589 3.6 138.613 4.704 138.613 5.004V9H136.537Z" fill="white"/>
<path d="M148.477 9.204C146.197 9.204 144.697 8.196 144.649 6.3H146.785C146.881 7.164 147.445 7.524 148.465 7.524C149.161 7.524 149.845 7.272 149.845 6.624C149.845 5.94 149.149 5.796 147.973 5.508C146.485 5.16 144.913 4.704 144.913 2.904C144.913 1.068 146.401 0.263999 148.321 0.263999C150.181 0.263999 151.621 1.104 151.705 2.904H149.629C149.545 2.244 149.041 1.872 148.249 1.872C147.505 1.872 147.013 2.196 147.013 2.676C147.013 3.276 147.673 3.42 148.957 3.708C150.553 4.08 151.993 4.572 151.993 6.408C151.993 8.208 150.457 9.204 148.477 9.204Z" fill="white"/>
<path d="M154.669 9V2.22H152.173V0.419999H159.313V2.22H156.793V9H154.669Z" fill="white"/>
<path d="M163.644 9.156C161.244 9.156 160.044 7.98 160.044 5.976V0.419999H162.168V6.048C162.168 6.888 162.6 7.452 163.644 7.452C164.628 7.452 165.096 6.852 165.096 6.012V0.419999H167.22V5.976C167.22 7.956 166.032 9.156 163.644 9.156Z" fill="white"/>
<path d="M170.454 7.212H171.702C173.094 7.212 173.814 6.336 173.814 4.764C173.814 3.204 173.058 2.196 171.726 2.196H170.454V7.212ZM168.33 9V0.419999H171.99C174.366 0.419999 175.962 2.136 175.962 4.764C175.962 6.276 175.434 7.488 174.474 8.22C173.802 8.724 172.938 9 171.858 9H168.33Z" fill="white"/>
<path d="M176.803 9V0.419999H178.927V9H176.803Z" fill="white"/>
<path d="M184.008 7.476C185.4 7.476 186.084 6.288 186.084 4.728C186.084 3.168 185.4 1.968 184.008 1.968C182.628 1.968 181.92 3.168 181.92 4.728C181.92 6.288 182.628 7.476 184.008 7.476ZM183.996 9.204C181.404 9.204 179.76 7.296 179.76 4.728C179.76 2.16 181.404 0.251999 183.996 0.251999C186.6 0.251999 188.244 2.16 188.244 4.728C188.244 7.296 186.6 9.204 183.996 9.204Z" fill="white"/>
<path d="M188.447 9V6.984H190.499V9H188.447Z" fill="white"/>
<path d="M194.941 9.192C192.421 9.192 190.705 7.308 190.705 4.74C190.705 2.184 192.373 0.251999 194.929 0.251999C195.925 0.251999 196.765 0.539999 197.377 1.008C198.121 1.572 198.553 2.412 198.661 3.372H196.537C196.429 2.604 195.829 2.016 194.917 2.016C193.525 2.016 192.865 3.18 192.865 4.74C192.865 6.312 193.657 7.452 194.929 7.452C195.877 7.452 196.501 6.852 196.597 6.024H198.721C198.661 6.876 198.277 7.656 197.689 8.22C197.029 8.856 196.153 9.192 194.941 9.192Z" fill="white"/>
<path d="M203.379 7.476C204.771 7.476 205.455 6.288 205.455 4.728C205.455 3.168 204.771 1.968 203.379 1.968C201.999 1.968 201.291 3.168 201.291 4.728C201.291 6.288 201.999 7.476 203.379 7.476ZM203.367 9.204C200.775 9.204 199.131 7.296 199.131 4.728C199.131 2.16 200.775 0.251999 203.367 0.251999C205.971 0.251999 207.615 2.16 207.615 4.728C207.615 7.296 205.971 9.204 203.367 9.204Z" fill="white"/>
<path d="M208.443 9V0.419999H211.299L212.343 4.176C212.499 4.716 212.835 6.132 212.835 6.132H212.859C212.859 6.132 213.195 4.716 213.339 4.176L214.395 0.419999H217.275V9H215.331V4.68C215.331 4.332 215.367 2.964 215.367 2.964H215.343C215.343 2.964 215.043 4.248 214.947 4.56L213.711 9H211.959L210.735 4.572C210.639 4.26 210.339 2.964 210.339 2.964H210.315C210.315 2.964 210.351 4.344 210.351 4.692V9H208.443Z" fill="white"/>
</svg>
